<svg width="384" height="340" viewBox="0 0 384 340" fill="none" xmlns="http://www.w3.org/2000/svg">
<path fill-rule="evenodd" clip-rule="evenodd" d="M122.789 -53.9646C107.485 -51.4626 103.599 -49.9844 96.0427 -43.793C79.8069 -30.4893 69.1345 -10.6792 42.5676 55.4655C27.6383 92.6342 27.7029 92.4363 30.421 92.4363C37.925 92.4363 132.834 21.7277 172.632 -13.5145C195.974 -34.1848 204.435 -51.1314 192.696 -53.7061C179.3 -56.6464 140.077 -56.7897 122.789 -53.9646ZM238.496 -15.9801C206.551 5.74234 140.956 53.951 82.8663 98.3975C72.4321 106.38 72.7956 103.519 78.351 133.834C86.5133 178.375 93.6881 206.202 103.827 232.636L109.966 248.643L115.588 232.076C139.52 161.539 199.746 107.147 275.664 87.5029C298.72 81.5377 337.938 77.3858 353.237 79.2901C360.335 80.1746 363.839 79.8858 363.839 78.4157C363.839 75.4997 352.91 55.9602 343.017 41.1905C333.301 26.6853 310.8 2.7375 296.607 -8.20349C285.905 -16.4527 263.019 -30.8488 260.969 -30.6206C260.347 -30.5499 250.234 -23.9627 238.496 -15.9801ZM-12.8523 20.2435C-32.834 42.4566 -48.8578 70.6209 -58.3246 100.179C-65.5722 122.806 -70.7458 154.762 -69.9118 171.749L-69.3181 183.819L-53.3913 143.68C-20.7379 61.3883 -1.12168 9.64175 -2.57967 9.64175C-2.98355 9.64175 -7.60591 14.4115 -12.8523 20.2435ZM292.488 113.765C262.549 120.481 240.697 133.145 217.22 157.386C186.131 189.484 164.984 235.19 165.053 270.142C165.091 290.026 168.942 299.598 181.262 310.414C194.294 321.856 204.604 325.133 230.955 326.21C269.943 327.803 266.296 330.347 281.727 290.784C301.143 241.002 304.396 227.313 299.148 217.504C297.114 213.704 298.132 213.599 336.799 213.599H376.54L366.345 224.38C352.891 238.603 342.163 260.35 322.369 313.502L315.579 331.733L325.652 320.905C361.116 282.781 384.03 222.795 384 168.163C383.988 144.183 373.307 126.838 352.762 117.432C338.427 110.869 312.443 109.288 292.488 113.765ZM8.82982 140.415C6.556 145.699 -1.60835 166.374 -9.3143 186.356C-42.1817 271.577 -43.4236 278.48 -29.605 299.029C-18.8296 315.055 11.9073 345.816 27.8625 356.543C81.065 392.312 147.29 405.301 205.485 391.381C227.969 386.001 249.465 377.94 265.485 368.877C281.654 359.731 290.269 353.722 284.277 355.769C272.32 359.854 240.404 363.572 216.424 363.673C185.776 363.8 169.273 360.699 148.918 350.985C89.9947 322.863 38.1027 239.845 18.5491 142.416C17.2668 136.031 15.4877 130.804 14.5911 130.804C13.6965 130.804 11.1036 135.128 8.82982 140.415Z" fill="white" fill-opacity="0.05"/>
</svg>
